<?xml version="1.0" encoding="UTF-8" standalone="no"?>
<!-- Created with Inkscape (http://www.inkscape.org/) -->

<svg
   xmlns:dc="http://purl.org/dc/elements/1.1/"
   xmlns:cc="http://creativecommons.org/ns#"
   xmlns:rdf="http://www.w3.org/1999/02/22-rdf-syntax-ns#"
   xmlns:svg="http://www.w3.org/2000/svg"
   xmlns="http://www.w3.org/2000/svg"
   xmlns:sodipodi="http://sodipodi.sourceforge.net/DTD/sodipodi-0.dtd"
   xmlns:inkscape="http://www.inkscape.org/namespaces/inkscape"
   width="370"
   height="85"
   viewBox="0 0 97.895835 22.489584"
   version="1.1"
   id="svg8"
   sodipodi:docname="logo.svg"
   inkscape:version="0.92.3 (2405546, 2018-03-11)">
  <defs
     id="defs2" />
  <sodipodi:namedview
     id="base"
     pagecolor="#ffffff"
     bordercolor="#666666"
     borderopacity="1.0"
     inkscape:pageopacity="0.0"
     inkscape:pageshadow="2"
     inkscape:zoom="1.979899"
     inkscape:cx="7.3868722"
     inkscape:cy="-91.345522"
     inkscape:document-units="mm"
     inkscape:current-layer="text21"
     showgrid="false"
     inkscape:window-width="2498"
     inkscape:window-height="1057"
     inkscape:window-x="-8"
     inkscape:window-y="-8"
     inkscape:window-maximized="1"
     fit-margin-top="0"
     fit-margin-left="0"
     fit-margin-right="0"
     fit-margin-bottom="0"
     units="px" />
  <metadata
     id="metadata5">
    <rdf:RDF>
      <cc:Work
         rdf:about="">
        <dc:format>image/svg+xml</dc:format>
        <dc:type
           rdf:resource="http://purl.org/dc/dcmitype/StillImage" />
        <dc:title />
      </cc:Work>
    </rdf:RDF>
  </metadata>
  <g
     inkscape:label="Layer 1"
     inkscape:groupmode="layer"
     id="layer1"
     transform="translate(-45.661885,-34.758345)">
    <g
       aria-label="Honey Waffle"
       style="font-style:normal;font-variant:normal;font-weight:bold;font-stretch:normal;font-size:25.39999962px;line-height:1.25;font-family:BenchNine;-inkscape-font-specification:'BenchNine, Bold';font-variant-ligatures:normal;font-variant-caps:normal;font-variant-numeric:normal;font-feature-settings:normal;text-align:start;letter-spacing:0px;word-spacing:0px;writing-mode:lr-tb;text-anchor:start;fill:#000000;fill-opacity:1;stroke:none;stroke-width:0.26458332"
       id="text21">
      <g
         aria-label="MESSAGE WIZ"
         style="font-style:normal;font-variant:normal;font-weight:normal;font-stretch:normal;font-size:20.98874092px;line-height:1.25;font-family:Roboto;-inkscape-font-specification:'Roboto, Normal';font-variant-ligatures:normal;font-variant-caps:normal;font-variant-numeric:normal;font-feature-settings:normal;text-align:start;letter-spacing:0px;word-spacing:0px;writing-mode:lr-tb;text-anchor:start;fill:#ffffff;fill-opacity:1;stroke:none;stroke-width:0.13883099"
         id="text826"
         transform="translate(0,-1.0583333)">
        <path
           d="m 55.822025,38.510844 v 14.356167 q 0,0.188897 -0.08395,0.251862 -0.06296,0.06297 -0.482736,0.08395 -0.419771,0 -1.15437,0 l 0.06297,-5.142194 q 0.04198,-1.364256 0.188897,-3.46311 0.14692,-2.098855 0.209886,-2.854443 l -0.356806,1.259313 q -0.818553,3.022351 -1.028438,3.589042 l -1.112394,3.232236 Q 52.002109,49.99158 51.8342,49.99158 H 51.099601 L 50.008197,46.591435 Q 49.735346,45.772881 48.66493,41.848023 l -0.02099,0.02099 q 0.06297,0.650645 0.209886,2.686535 0.146919,2.035889 0.167908,3.421133 l 0.04198,4.890332 q 0,0.188897 -0.104943,0.251862 -0.08395,0.06297 -0.482736,0.08395 -0.398783,0 -1.070416,0 V 38.84666 q 0,-0.209885 0.08395,-0.272851 0.08395,-0.06296 0.251863,-0.06296 h 1.217335 l 2.014901,6.380518 q 0.230874,0.713611 0.419771,1.406233 0.188897,0.671634 0.251863,0.923496 0.06296,-0.251862 0.230874,-0.923496 0.188896,-0.671633 0.377793,-1.343267 l 1.867981,-6.107668 q 0.06297,-0.188897 0.125931,-0.251862 0.06297,-0.08395 0.209886,-0.08395 z"
           style="font-style:normal;font-variant:normal;font-weight:normal;font-stretch:normal;font-size:20.98854828px;font-family:'Yanone Kaffeesatz';-inkscape-font-specification:'Yanone Kaffeesatz, Normal';font-variant-ligatures:normal;font-variant-caps:normal;font-variant-numeric:normal;font-feature-settings:normal;text-align:start;letter-spacing:1.13657522px;word-spacing:0.71151465px;writing-mode:lr-tb;text-anchor:start;fill:#ffffff;fill-opacity:1;stroke-width:0.13883099"
           id="path815"
           inkscape:connector-curvature="0" />
        <path
           d="m 60.285613,51.670663 h 3.61003 q 0,0.608668 -0.02099,0.986462 0,0.377794 -0.08395,0.461748 -0.06297,0.08395 -0.230874,0.08395 h -4.9533 V 38.84666 q 0,-0.08395 0.06297,-0.209885 0.06297,-0.125931 0.272851,-0.125931 h 5.037252 q 0,0.587679 -0.02099,0.965473 0,0.377794 -0.06297,0.482736 -0.06296,0.08396 -0.230874,0.08396 h -3.379156 v 4.386606 h 3.169271 q 0,0.566691 -0.02099,0.944485 0,0.377794 -0.06296,0.503725 -0.06297,0.104943 -0.230874,0.104943 h -2.854443 z"
           style="font-style:normal;font-variant:normal;font-weight:normal;font-stretch:normal;font-size:20.98854828px;font-family:'Yanone Kaffeesatz';-inkscape-font-specification:'Yanone Kaffeesatz, Normal';font-variant-ligatures:normal;font-variant-caps:normal;font-variant-numeric:normal;font-feature-settings:normal;text-align:start;letter-spacing:1.13657522px;word-spacing:0.71151465px;writing-mode:lr-tb;text-anchor:start;fill:#ffffff;fill-opacity:1;stroke-width:0.13883099"
           id="path817"
           inkscape:connector-curvature="0" />
        <path
           d="m 68.816715,53.412713 q -1.322278,0 -2.056878,-0.377794 -0.71361,-0.377794 -0.71361,-0.86053 0,-0.272852 0.104942,-0.608668 0.125932,-0.335817 0.335817,-0.608668 0.818554,0.734599 2.161821,0.734599 2.077866,0 2.077866,-2.140832 0,-0.755588 -0.272851,-1.343267 -0.272851,-0.608668 -0.965473,-1.427221 l -2.098855,-2.45566 q -0.713611,-0.860531 -1.028439,-1.553153 -0.29384,-0.713611 -0.29384,-1.469198 0,-1.364256 0.944485,-2.182809 0.965473,-0.818554 2.665546,-0.818554 1.406232,0 2.077866,0.29384 0.671633,0.272851 0.671633,0.755588 0,0.524713 -0.419771,0.965473 -0.230874,-0.188897 -0.818553,-0.335817 -0.566691,-0.167908 -1.238324,-0.167908 -0.944485,0 -1.511176,0.377794 -0.545702,0.377793 -0.545702,1.070415 0,0.545703 0.230874,1.007451 0.230874,0.440759 0.734599,1.070416 l 2.287752,2.581591 q 0.797565,0.944485 1.091404,1.74205 0.314829,0.797565 0.314829,1.805015 0,1.784026 -0.881519,2.875431 -0.860531,1.070416 -2.854443,1.070416 z"
           style="font-style:normal;font-variant:normal;font-weight:normal;font-stretch:normal;font-size:20.98854828px;font-family:'Yanone Kaffeesatz';-inkscape-font-specification:'Yanone Kaffeesatz, Normal';font-variant-ligatures:normal;font-variant-caps:normal;font-variant-numeric:normal;font-feature-settings:normal;text-align:start;letter-spacing:1.13657522px;word-spacing:0.71151465px;writing-mode:lr-tb;text-anchor:start;fill:#ffffff;fill-opacity:1;stroke-width:0.13883099"
           id="path819"
           inkscape:connector-curvature="0" />
        <path
           d="m 77.455057,53.412713 q -1.322279,0 -2.056878,-0.377794 -0.71361,-0.377794 -0.71361,-0.86053 0,-0.272852 0.104942,-0.608668 0.125932,-0.335817 0.335817,-0.608668 0.818553,0.734599 2.161821,0.734599 2.077866,0 2.077866,-2.140832 0,-0.755588 -0.272851,-1.343267 -0.272851,-0.608668 -0.965473,-1.427221 l -2.098855,-2.45566 q -0.713611,-0.860531 -1.028439,-1.553153 -0.29384,-0.713611 -0.29384,-1.469198 0,-1.364256 0.944485,-2.182809 0.965473,-0.818554 2.665545,-0.818554 1.406233,0 2.077867,0.29384 0.671633,0.272851 0.671633,0.755588 0,0.524713 -0.419771,0.965473 -0.230874,-0.188897 -0.818553,-0.335817 -0.566691,-0.167908 -1.238324,-0.167908 -0.944485,0 -1.511176,0.377794 -0.545702,0.377793 -0.545702,1.070415 0,0.545703 0.230874,1.007451 0.230874,0.440759 0.734599,1.070416 l 2.287752,2.581591 q 0.797565,0.944485 1.091404,1.74205 0.314829,0.797565 0.314829,1.805015 0,1.784026 -0.881519,2.875431 -0.860531,1.070416 -2.854443,1.070416 z"
           style="font-style:normal;font-variant:normal;font-weight:normal;font-stretch:normal;font-size:20.98854828px;font-family:'Yanone Kaffeesatz';-inkscape-font-specification:'Yanone Kaffeesatz, Normal';font-variant-ligatures:normal;font-variant-caps:normal;font-variant-numeric:normal;font-feature-settings:normal;text-align:start;letter-spacing:1.13657522px;word-spacing:0.71151465px;writing-mode:lr-tb;text-anchor:start;fill:#ffffff;fill-opacity:1;stroke-width:0.13883099"
           id="path821"
           inkscape:connector-curvature="0" />
        <path
           d="m 91.721281,52.887999 q 0.04198,0.188897 -0.104943,0.272851 -0.14692,0.08395 -0.629656,0.08395 -0.566691,0 -1.007451,-0.04198 l -0.881519,-3.735961 h -3.652007 l -0.818553,3.442122 q -0.06297,0.188897 -0.209886,0.272851 -0.125931,0.06297 -0.587679,0.06297 -0.44076,0 -1.049428,-0.06297 L 86.53711,38.741718 q 0.06297,-0.29384 0.629656,-0.29384 0.482737,0 0.797565,0.06297 z m -3.001362,-4.953297 -0.713611,-3.022351 q -0.608668,-2.560603 -0.734599,-4.05079 -0.230874,1.867981 -0.755588,4.05079 l -0.713611,3.022351 z"
           style="font-style:normal;font-variant:normal;font-weight:normal;font-stretch:normal;font-size:20.98854828px;font-family:'Yanone Kaffeesatz';-inkscape-font-specification:'Yanone Kaffeesatz, Normal';font-variant-ligatures:normal;font-variant-caps:normal;font-variant-numeric:normal;font-feature-settings:normal;text-align:start;letter-spacing:1.13657522px;word-spacing:0.71151465px;writing-mode:lr-tb;text-anchor:start;fill:#ffffff;fill-opacity:1;stroke-width:0.13883099"
           id="path823"
           inkscape:connector-curvature="0" />
        <path
           d="m 97.323825,53.412713 q -1.469198,0 -2.30874,-0.587679 -0.839542,-0.608668 -1.238325,-2.161821 -0.398782,-1.553152 -0.398782,-4.470561 0,-3.16927 0.524714,-4.890331 0.545702,-1.721061 1.511175,-2.350718 0.965473,-0.650645 2.476649,-0.650645 1.00745,0 1.616118,0.335817 0.629656,0.314828 0.629656,0.734599 0,0.503725 -0.230874,1.091405 -0.293839,-0.230874 -0.734599,-0.356806 -0.440759,-0.14692 -0.944484,-0.14692 -1.112393,0 -1.763038,0.566691 -0.650645,0.545703 -0.965474,1.867981 -0.314828,1.322279 -0.314828,3.672996 0,2.413683 0.251863,3.652007 0.251862,1.217336 0.71361,1.637107 0.461748,0.398783 1.217336,0.398783 0.503725,0 0.818554,-0.167909 0.335816,-0.167908 0.440759,-0.356805 v -5.226149 h -1.574141 v -1.070416 q 0,-0.335816 0.398782,-0.335816 h 2.749504 v 7.870705 q -1.133385,0.944485 -2.875435,0.944485 z"
           style="font-style:normal;font-variant:normal;font-weight:normal;font-stretch:normal;font-size:20.98854828px;font-family:'Yanone Kaffeesatz';-inkscape-font-specification:'Yanone Kaffeesatz, Normal';font-variant-ligatures:normal;font-variant-caps:normal;font-variant-numeric:normal;font-feature-settings:normal;text-align:start;letter-spacing:1.13657522px;word-spacing:0.71151465px;writing-mode:lr-tb;text-anchor:start;fill:#ffffff;fill-opacity:1;stroke-width:0.13883099"
           id="path825"
           inkscape:connector-curvature="0" />
        <path
           d="m 104.62513,51.670663 h 3.61003 q 0,0.608668 -0.021,0.986462 0,0.377794 -0.084,0.461748 -0.063,0.08395 -0.23087,0.08395 h -4.9533 V 38.84666 q 0,-0.08395 0.063,-0.209885 0.063,-0.125931 0.27286,-0.125931 h 5.03725 q 0,0.587679 -0.021,0.965473 0,0.377794 -0.063,0.482736 -0.063,0.08396 -0.23087,0.08396 h -3.37916 v 4.386606 h 3.16927 q 0,0.566691 -0.021,0.944485 0,0.377794 -0.063,0.503725 -0.063,0.104943 -0.23087,0.104943 h -2.85445 z"
           style="font-style:normal;font-variant:normal;font-weight:normal;font-stretch:normal;font-size:20.98854828px;font-family:'Yanone Kaffeesatz';-inkscape-font-specification:'Yanone Kaffeesatz, Normal';font-variant-ligatures:normal;font-variant-caps:normal;font-variant-numeric:normal;font-feature-settings:normal;text-align:start;letter-spacing:1.13657522px;word-spacing:0.71151465px;writing-mode:lr-tb;text-anchor:start;fill:#ffffff;fill-opacity:1;stroke-width:0.13883099"
           id="path827"
           inkscape:connector-curvature="0" />
        <path
           d="m 128.67214,38.510844 -2.77049,14.754949 q -0.1889,0.02099 -0.54571,0.06297 -0.3568,0.04198 -0.86053,0.04198 -0.67163,0 -0.9025,-1.196347 l -1.09141,-4.764401 q -0.23087,-1.217336 -0.65064,-4.7644 -0.39879,3.400144 -0.60867,4.743412 l -1.15437,5.876793 q -0.69262,0.08395 -1.55315,0.08395 -0.56669,0 -0.86053,-1.280301 -0.44076,-2.182809 -1.32228,-6.842267 -0.88152,-4.659458 -1.17536,-6.21261 -0.021,-0.08395 -0.021,-0.230874 0,-0.14692 0.0839,-0.209886 0.084,-0.06296 0.29384,-0.06296 h 1.38525 l 1.53216,8.164545 q 0.31483,1.909958 0.62966,4.680446 h 0.10494 q 0.10494,-2.077866 0.5457,-4.680446 l 1.30129,-6.94721 q 0.063,-0.293839 0.12594,-0.398782 0.0839,-0.104943 0.31482,-0.104943 h 1.19635 l 1.49019,7.450935 q 0.31483,1.658095 0.56669,4.05079 l 0.063,0.629656 h 0.12594 q 0.23087,-2.770488 0.52471,-4.680446 l 1.36425,-7.66082 q 0.042,-0.272851 0.10495,-0.377794 0.084,-0.125931 0.31483,-0.125931 z"
           style="font-style:normal;font-variant:normal;font-weight:normal;font-stretch:normal;font-size:20.98854828px;font-family:'Yanone Kaffeesatz';-inkscape-font-specification:'Yanone Kaffeesatz, Normal';font-variant-ligatures:normal;font-variant-caps:normal;font-variant-numeric:normal;font-feature-settings:normal;text-align:start;letter-spacing:1.13657522px;word-spacing:0.71151465px;writing-mode:lr-tb;text-anchor:start;fill:#ffffff;fill-opacity:1;stroke-width:0.13883099"
           id="path829"
           inkscape:connector-curvature="0" />
        <path
           d="m 130.82239,39.28742 q 0,-0.419771 0.084,-0.566691 0.0839,-0.14692 0.37779,-0.167908 0.31483,-0.04198 1.25931,-0.04198 v 14.356167 q 0,0.188897 -0.084,0.251862 -0.084,0.06297 -0.50373,0.08395 -0.41977,0 -1.13338,0 z"
           style="font-style:normal;font-variant:normal;font-weight:normal;font-stretch:normal;font-size:20.98854828px;font-family:'Yanone Kaffeesatz';-inkscape-font-specification:'Yanone Kaffeesatz, Normal';font-variant-ligatures:normal;font-variant-caps:normal;font-variant-numeric:normal;font-feature-settings:normal;text-align:start;letter-spacing:1.13657522px;word-spacing:0.71151465px;writing-mode:lr-tb;text-anchor:start;fill:#ffffff;fill-opacity:1;stroke-width:0.13883099"
           id="path831"
           inkscape:connector-curvature="0" />
        <path
           d="m 135.27352,53.202827 q -0.27285,-0.230874 -0.27285,-0.650645 0,-0.398782 0.1679,-0.755587 l 5.03726,-11.774576 h -3.92486 q -0.65065,0 -0.90251,0.06297 v -1.217336 q 0,-0.167908 0.084,-0.251863 0.10495,-0.104942 0.27285,-0.104942 h 6.25459 q 0.16791,0.230874 0.16791,0.545702 0,0.377794 -0.16791,0.776576 l -5.1212,11.85853 h 4.07177 q 0.86053,0 1.23833,-0.167908 v 1.343267 q 0,0.335816 -0.33582,0.335816 z"
           style="font-style:normal;font-variant:normal;font-weight:normal;font-stretch:normal;font-size:20.98854828px;font-family:'Yanone Kaffeesatz';-inkscape-font-specification:'Yanone Kaffeesatz, Normal';font-variant-ligatures:normal;font-variant-caps:normal;font-variant-numeric:normal;font-feature-settings:normal;text-align:start;letter-spacing:1.13657522px;word-spacing:0.71151465px;writing-mode:lr-tb;text-anchor:start;fill:#ffffff;fill-opacity:1;stroke-width:0.13883099"
           id="path833"
           inkscape:connector-curvature="0" />
      </g>
    </g>
  </g>
</svg>
